<svg width="15" height="15" viewBox="0 0 15 15" fill="none" xmlns="http://www.w3.org/2000/svg">
<path d="M14.9521 6.63632C14.9203 6.56006 14.8746 6.49069 14.8165 6.43256L12.9421 4.55818C12.6978 4.31443 12.3028 4.31443 12.0584 4.55818C11.814 4.80254 11.814 5.19817 12.0584 5.44192L12.8665 6.25004H9.37523C9.02962 6.25004 8.75024 6.53003 8.75024 6.87503C8.75024 7.22003 9.02962 7.50002 9.37523 7.50002H12.8665L12.0584 8.30815C11.814 8.55252 11.814 8.94814 12.0584 9.19189C12.1802 9.31438 12.3402 9.37502 12.5002 9.37502C12.6603 9.37502 12.8203 9.31441 12.9421 9.19189L14.8165 7.31751C14.8746 7.26 14.9203 7.19062 14.9521 7.11375C15.0152 6.96131 15.0152 6.78881 14.9521 6.63632Z"/>
<path d="M10.6255 8.75013C10.2799 8.75013 10.0005 9.03012 10.0005 9.37512V12.5001H7.50049V2.50011C7.50049 2.22449 7.31923 1.98074 7.05485 1.90137L4.88422 1.25013H10.0005V4.37514C10.0005 4.72014 10.2799 5.00013 10.6255 5.00013C10.9711 5.00013 11.2505 4.72014 11.2505 4.37514V0.625142C11.2505 0.280112 10.9711 0.00012207 10.6255 0.00012207H0.625479C0.602979 0.00012207 0.582969 0.00949707 0.561113 0.0119873C0.531729 0.0151221 0.504863 0.0201025 0.476738 0.0269873C0.411113 0.0438623 0.351729 0.0694971 0.296123 0.104478C0.282383 0.113237 0.265508 0.113853 0.252383 0.123843C0.247344 0.127622 0.245469 0.134507 0.240459 0.138257C0.172344 0.191987 0.115479 0.257612 0.0742285 0.335747C0.0654688 0.352622 0.0635938 0.370757 0.0567383 0.388247C0.0367285 0.435737 0.014873 0.481997 0.00737305 0.534497C0.00423828 0.553247 0.00986328 0.570737 0.00924805 0.588872C0.00863281 0.601382 0.000488281 0.612632 0.000488281 0.625112V13.1251C0.000488281 13.4232 0.211104 13.6795 0.502988 13.7376L6.75298 14.9876C6.79361 14.9964 6.83486 15.0002 6.87547 15.0002C7.01858 15.0002 7.15921 14.9508 7.27171 14.8583C7.41608 14.7395 7.50046 14.5626 7.50046 14.3751V13.7501H10.6255C10.9711 13.7501 11.2505 13.4702 11.2505 13.1252V9.37512C11.2505 9.03012 10.9711 8.75013 10.6255 8.75013Z"/>
</svg>
