<svg width="11" height="11" viewBox="0 0 11 11" fill="none" xmlns="http://www.w3.org/2000/svg">
<g clip-path="url(#clip0)">
<path d="M5.50233 6.55952L1.38707 2.44444C1.27403 2.33113 1.12289 2.2688 0.96174 2.2688C0.800496 2.2688 0.649447 2.33113 0.536228 2.44444L0.175821 2.80503C0.0624228 2.91816 6.7515e-08 3.06938 6.55933e-08 3.23054C6.36715e-08 3.39169 0.0624228 3.54274 0.175821 3.65596L5.07538 8.55561C5.18896 8.66928 5.34072 8.73152 5.50206 8.73108C5.66411 8.73152 5.81569 8.66937 5.92936 8.55561L10.8242 3.66052C10.9376 3.5473 11 3.39625 11 3.23501C11 3.07386 10.9376 2.92281 10.8242 2.8095L10.4638 2.449C10.2292 2.21443 9.84732 2.21443 9.61284 2.449L5.50233 6.55952Z" fill="#0373D2"/>
</g>
<defs>
<clipPath id="clip0">
<rect width="11" height="11" fill="white" transform="translate(0 11) rotate(-90)"/>
</clipPath>
</defs>
</svg>
