<svg width="20" height="20" viewBox="0 0 20 20" fill="none" xmlns="http://www.w3.org/2000/svg">
<path d="M18.4782 6.41303H17.4415C17.4336 6.4042 17.4261 6.3951 17.4177 6.38666L11.7655 0.734473C11.5109 0.479785 11.0979 0.479785 10.8432 0.734473C10.5885 0.98916 10.5885 1.40209 10.8432 1.65678L15.5994 6.41299H4.40055L9.1568 1.65678C9.41148 1.40209 9.41148 0.98916 9.1568 0.734473C8.90215 0.479785 8.48918 0.479785 8.23449 0.734473L2.5823 6.38666C2.57383 6.39514 2.56641 6.40424 2.55848 6.41303H1.52176C0.682656 6.41303 0 7.09568 0 7.93475V8.80432C0 9.60358 0.619336 10.2608 1.40328 10.3215L2.65328 17.8216C2.81121 18.7689 3.62281 19.4565 4.5832 19.4565H15.6078C16.5752 19.4565 17.4079 18.7343 17.5447 17.7767L18.6098 10.3204C19.3876 10.2535 20 9.59904 20 8.80432V7.93475C20 7.09568 19.3173 6.41303 18.4782 6.41303ZM18.6957 8.80432C18.6957 8.9242 18.5981 9.0217 18.4783 9.0217C18.278 9.0217 12.2423 9.0217 11.9566 9.0217C11.5964 9.0217 11.3044 9.31369 11.3044 9.67389C11.3044 10.034 11.5964 10.3261 11.9566 10.3261H17.2916L16.2535 17.5922C16.2079 17.9115 15.9304 18.1522 15.6079 18.1522H4.5832C4.26309 18.1522 3.99254 17.923 3.93988 17.6072L2.72641 10.3261H8.04348C8.40363 10.3261 8.69566 10.0341 8.69566 9.67389C8.69566 9.31373 8.40367 9.0217 8.04348 9.0217C7.75734 9.0217 1.72113 9.0217 1.52176 9.0217C1.40188 9.0217 1.30437 8.92416 1.30437 8.80432V7.93475C1.30437 7.81486 1.40191 7.71736 1.52176 7.71736H18.4783C18.5982 7.71736 18.6957 7.8149 18.6957 7.93475V8.80432Z"/>
</svg>
