<svg width="45" height="39" viewBox="0 0 45 39" fill="none" xmlns="http://www.w3.org/2000/svg">
<path d="M22.5 19.499C22.9851 19.499 23.3789 19.1052 23.3789 18.6201C23.3789 18.135 22.9851 17.7412 22.5 17.7412C22.0149 17.7412 21.6211 18.135 21.6211 18.6201C21.6211 19.1052 22.0149 19.499 22.5 19.499Z" fill="#2D9BF7"/>
<path d="M41.4843 12.4677H36.2867L28.2915 1.46796C27.5732 0.237144 25.9912 -0.200936 24.7346 0.494979C23.4609 1.20257 23.0029 2.80691 23.7109 4.08099C23.7311 4.11703 23.7534 4.15171 23.7785 4.18467L30.0496 12.4677H14.9503L21.2214 4.18467C21.2461 4.15171 21.2688 4.11703 21.2891 4.08099C21.9953 2.81 21.5424 1.20428 20.2642 0.494293C19.0104 -0.200249 17.4284 0.237487 16.7088 1.46727L8.71317 12.4677H3.51562C1.57722 12.4677 0 14.0449 0 15.9833C0 17.5121 0.992201 18.8432 2.38987 19.3142C2.53887 19.4296 2.72495 19.4989 2.92751 19.4989C2.96802 19.4989 3.00613 19.5013 3.04595 19.5068C3.42429 19.5576 3.72401 19.8447 3.79268 20.2202L6.78267 36.6702C7.01098 37.9244 8.10206 38.8349 9.37716 38.8349H35.6228C36.8979 38.8349 37.9889 37.9244 38.2172 36.6699L41.2072 20.2206C41.2759 19.8447 41.576 19.5576 41.9557 19.5068C41.9941 19.5013 42.0322 19.4989 42.0724 19.4989C42.2763 19.4989 42.4638 19.4289 42.6128 19.3122C44.0115 18.838 44.9999 17.5094 44.9999 15.9833C44.9999 14.0449 43.4227 12.4677 41.4843 12.4677ZM25.2235 3.18114C25.0227 2.76537 25.1786 2.25897 25.5871 2.03238C26.0125 1.79652 26.5488 1.94861 26.7832 2.37124C26.8004 2.40282 26.82 2.43304 26.8409 2.46188L34.1135 12.4677H32.2541L25.2235 3.18114ZM18.159 2.46222C18.1799 2.43338 18.1988 2.40351 18.2163 2.37261C18.4515 1.94964 18.9881 1.7972 19.4118 2.03169C19.821 2.25897 19.9776 2.76469 19.7764 3.18114L12.7458 12.4677H10.8864L18.159 2.46222ZM41.4843 17.7411H26.0156C25.5301 17.7411 25.1367 18.1346 25.1367 18.62C25.1367 19.1055 25.5301 19.49 26.0156 19.49H39.5857C39.5397 19.6211 39.5033 19.7571 39.4779 19.8972L36.4876 36.3554C36.4117 36.7736 36.0478 37.077 35.6228 37.077H9.37716C8.95178 37.077 8.5882 36.7736 8.51198 36.3557L5.52199 19.9058C5.49659 19.7657 5.4602 19.6297 5.41419 19.4989H18.9843C19.4698 19.4989 19.8632 19.1055 19.8632 18.62C19.8632 18.1346 19.4698 17.7411 18.9843 17.7411H3.51562C2.53818 17.7411 1.75781 16.9446 1.75781 15.9833C1.75781 15.0141 2.54642 14.2255 3.51562 14.2255H41.4843C42.4535 14.2255 43.2421 15.0141 43.2421 15.9833C43.2421 16.9594 42.4435 17.7411 41.4843 17.7411Z" fill="#2D9BF7"/>
<path d="M22.5 22.1357C21.046 22.1357 19.8633 23.3185 19.8633 24.7725V31.8037C19.8633 33.2577 21.046 34.4404 22.5 34.4404C23.954 34.4404 25.1367 33.2577 25.1367 31.8037V24.7725C25.1367 23.3157 23.9567 22.1357 22.5 22.1357ZM23.3789 31.8037C23.3789 32.2885 22.9848 32.6826 22.5 32.6826C22.0152 32.6826 21.6211 32.2885 21.6211 31.8037V24.7725C21.6211 24.2877 22.0152 23.8936 22.5 23.8936C22.9851 23.8936 23.3789 24.2873 23.3789 24.7725V31.8037Z" fill="#2D9BF7"/>
<path d="M31.2891 34.4404C32.743 34.4404 33.9258 33.2577 33.9258 31.8037V24.7725C33.9258 23.3157 32.7458 22.1357 31.2891 22.1357C29.8351 22.1357 28.6523 23.3185 28.6523 24.7725V31.8037C28.6523 33.2577 29.8351 34.4404 31.2891 34.4404ZM30.4102 24.7725C30.4102 24.2877 30.8043 23.8936 31.2891 23.8936C31.7742 23.8936 32.168 24.2873 32.168 24.7725V31.8037C32.168 32.2885 31.7738 32.6826 31.2891 32.6826C30.8043 32.6826 30.4102 32.2885 30.4102 31.8037V24.7725Z" fill="#2D9BF7"/>
<path d="M13.7109 22.1357C12.257 22.1357 11.0742 23.3185 11.0742 24.7725V31.8037C11.0742 33.2577 12.257 34.4404 13.7109 34.4404C15.1649 34.4404 16.3476 33.2577 16.3476 31.8037V24.7725C16.3476 23.3157 15.1676 22.1357 13.7109 22.1357ZM14.5898 31.8037C14.5898 32.2885 14.1957 32.6826 13.7109 32.6826C13.2262 32.6826 12.832 32.2885 12.832 31.8037V24.7725C12.832 24.2877 13.2262 23.8936 13.7109 23.8936C14.196 23.8936 14.5898 24.287 14.5898 24.7725V31.8037Z" fill="#2D9BF7"/>
</svg>
