<svg width="11" height="17" viewBox="0 0 11 17" fill="none" xmlns="http://www.w3.org/2000/svg">
<path d="M5.5 0C2.46244 0 0 1.11682 0 2.49454V3.03553C0 4.41325 2.46244 5.53007 5.5 5.53007C8.53751 5.53007 11 4.41325 11 3.03553V2.49454C11 1.11682 8.53751 0 5.5 0Z"/>
<path d="M5.5 6.7523C2.84854 6.7523 0.635502 5.90133 0.115674 4.76868C0.039972 4.93361 0 5.10443 0 5.2796V5.82059C0 7.19831 2.46244 8.31513 5.5 8.31513C8.53751 8.31513 11 7.19831 11 5.82059V5.2796C11 5.10443 10.96 4.93361 10.8843 4.76868C10.3645 5.90133 8.15146 6.7523 5.5 6.7523Z"/>
<path d="M5.5 9.53733C2.84854 9.53733 0.635502 8.68632 0.115674 7.55371C0.039972 7.71864 0 7.88947 0 8.06463V8.60562C0 9.98339 2.46244 11.1002 5.5 11.1002C8.53751 11.1002 11 9.98339 11 8.60562V8.06463C11 7.88947 10.96 7.71864 10.8843 7.55371C10.3645 8.68637 8.15146 9.53733 5.5 9.53733Z"/>
<path d="M5.5 12.4728C2.84854 12.4728 0.635502 11.6217 0.115674 10.4891C0.039972 10.6541 0 10.8249 0 11V11.541C0 12.9188 2.46244 14.0356 5.5 14.0356C8.53751 14.0356 11 12.9188 11 11.541V11C11 10.8249 10.96 10.654 10.8843 10.4891C10.3645 11.6217 8.15146 12.4728 5.5 12.4728Z"/>
<path d="M5.5 15.2575C2.84854 15.2575 0.635502 14.4066 0.115674 13.274C0.039972 13.439 0 13.6098 0 13.7848V14.3258C0 15.7036 2.46244 16.8204 5.5 16.8204C8.53751 16.8204 11 15.7036 11 14.3258V13.7848C11 13.6097 10.96 13.4388 10.8843 13.2739C10.3645 14.4065 8.15146 15.2575 5.5 15.2575Z"/>
</svg>
