<svg width="19" height="14" viewBox="0 0 19 14" fill="none" xmlns="http://www.w3.org/2000/svg">
<path d="M19 0.666667C19 0.266667 18.6833 0 18.2083 0H0.791667C0.316667 0 0 0.266667 0 0.666667V2C0 2.4 0.316667 2.66667 0.791667 2.66667H18.2083C18.6833 2.66667 19 2.4 19 2V0.666667Z" fill="white"/>
<path d="M19 5.99992C19 5.59992 18.6833 5.33325 18.2083 5.33325H0.791667C0.316667 5.33325 0 5.59992 0 5.99992V7.33325C0 7.73325 0.316667 7.99992 0.791667 7.99992H18.2083C18.6833 7.99992 19 7.73325 19 7.33325V5.99992Z" fill="white"/>
<path d="M19 11.3334C19 10.9334 18.6833 10.6667 18.2083 10.6667H0.791667C0.316667 10.6667 0 10.9334 0 11.3334V12.6667C0 13.0667 0.316667 13.3334 0.791667 13.3334H18.2083C18.6833 13.3334 19 13.0667 19 12.6667V11.3334Z" fill="white"/>
</svg>
