<svg width="20" height="18" viewBox="0 0 20 18" fill="none" xmlns="http://www.w3.org/2000/svg">
<path d="M19.9009 8.75289L16.954 2.18187C16.9539 2.18169 16.9538 2.18151 16.9537 2.18134L16.9499 2.17279C16.94 2.15081 16.9283 2.13016 16.9153 2.11049C16.9118 2.10515 16.9076 2.10035 16.904 2.09528C16.8923 2.07908 16.8798 2.06386 16.8662 2.04953C16.8609 2.04392 16.8555 2.03841 16.8499 2.03307C16.8349 2.01892 16.8191 2.00583 16.8024 1.99391C16.7981 1.9907 16.7941 1.98714 16.7895 1.98412C16.7685 1.97023 16.7463 1.95831 16.7231 1.94807C16.7165 1.94514 16.7097 1.943 16.7029 1.94042C16.6848 1.93348 16.6663 1.92769 16.6473 1.92315C16.6395 1.92129 16.6317 1.91942 16.6238 1.91799C16.5977 1.91319 16.5712 1.90998 16.5441 1.90998H11.3441C11.2551 1.63311 11.0822 1.39433 10.856 1.22141V0.575113C10.856 0.329392 10.6567 0.130127 10.411 0.130127H9.58029C9.33457 0.130127 9.1353 0.329392 9.1353 0.575113V1.232C8.91592 1.40403 8.74843 1.6389 8.6613 1.91007H3.44722C3.42008 1.91007 3.39364 1.91337 3.36748 1.91808C3.35947 1.91951 3.35182 1.92138 3.34398 1.92324C3.32494 1.92778 3.30643 1.93357 3.28836 1.94051C3.2816 1.94309 3.27474 1.94523 3.26816 1.94816C3.24502 1.9584 3.22277 1.97023 3.20177 1.98421C3.19723 1.98723 3.19322 1.99079 3.18886 1.994C3.17213 2.00592 3.15638 2.01892 3.14143 2.03316C3.13573 2.0385 3.13039 2.04401 3.12496 2.04962C3.11134 2.06395 3.09888 2.07926 3.08723 2.09536C3.08349 2.10053 3.07939 2.10533 3.07592 2.11058C3.06293 2.13025 3.05118 2.1509 3.0413 2.17288L3.03748 2.18143C3.03739 2.1816 3.0373 2.18178 3.03721 2.18196L0.0798305 8.77621C0.0298141 8.84821 0 8.93534 0 9.02968C0 10.9305 1.54642 12.4769 3.44722 12.4769C5.34802 12.4769 6.89444 10.9305 6.89444 9.02968C6.89444 8.93534 6.86472 8.8483 6.81461 8.7763L4.13446 2.79987H8.67207C8.76169 3.0584 8.92402 3.28259 9.13521 3.4483V14.6069H5.18925C5.02274 14.6069 4.87011 14.6999 4.79375 14.8479L3.56968 17.2212C3.49857 17.3591 3.50445 17.5242 3.58517 17.6567C3.66598 17.7892 3.80988 17.8701 3.96518 17.8701H16.026C16.0265 17.87 16.0271 17.8701 16.0278 17.8701C16.2735 17.8701 16.4728 17.6709 16.4728 17.4251C16.4728 17.3379 16.4477 17.2566 16.4043 17.188L15.1973 14.8479C15.1209 14.6999 14.9683 14.6069 14.8018 14.6069H10.8559V3.45889C11.0738 3.2922 11.2416 3.0641 11.3332 2.79987H15.8567L13.1445 8.84759C13.1438 8.84919 13.1435 8.85079 13.1428 8.85239C13.1407 8.8572 13.1392 8.86218 13.1372 8.86708C13.1292 8.88746 13.1228 8.90828 13.1179 8.92929C13.1167 8.9348 13.1151 8.94014 13.114 8.94566C13.1091 8.9712 13.1066 8.99692 13.1063 9.02273C13.1063 9.02514 13.1056 9.02727 13.1056 9.02968C13.1056 10.9305 14.652 12.4769 16.5528 12.4769C18.4536 12.4769 20 10.9305 20 9.02968C20 8.92448 19.9619 8.82908 19.9009 8.75289ZM5.75332 8.58469H1.14112L3.44722 3.44234L5.75332 8.58469ZM10.5218 2.34011C10.5218 2.62641 10.2889 2.85923 10.0027 2.85923C9.71637 2.85923 9.48346 2.62632 9.48346 2.34011C9.48346 2.0538 9.71637 1.82099 10.0027 1.82099C10.2889 1.8209 10.5218 2.0538 10.5218 2.34011ZM14.2378 8.58469L16.544 3.44234L18.8501 8.58469H14.2378Z"/>
</svg>
