<svg width="19" height="23" viewBox="0 0 19 23" fill="none" xmlns="http://www.w3.org/2000/svg">
<path d="M2.94074 21.8908C2.9667 22.5107 3.47683 23 4.09721 23H14.9029C15.5233 23 16.0334 22.5107 16.0594 21.8908L16.8311 5.60059H2.16907L2.94074 21.8908ZM11.9444 9.64679C11.9444 9.38722 12.1549 9.17669 12.4146 9.17669H13.1666C13.4261 9.17669 13.6367 9.38716 13.6367 9.64679V18.9538C13.6367 19.2134 13.4262 19.4239 13.1666 19.4239H12.4146C12.155 19.4239 11.9444 19.2135 11.9444 18.9538V9.64679ZM8.65399 9.64679C8.65399 9.38722 8.86446 9.17669 9.12408 9.17669H9.87605C10.1356 9.17669 10.3461 9.38716 10.3461 9.64679V18.9538C10.3461 19.2134 10.1357 19.4239 9.87605 19.4239H9.12408C8.86451 19.4239 8.65399 19.2135 8.65399 18.9538V9.64679ZM5.36341 9.64679C5.36341 9.38722 5.57388 9.17669 5.83351 9.17669H6.58553C6.8451 9.17669 7.05563 9.38716 7.05563 9.64679V18.9538C7.05563 19.2134 6.84516 19.4239 6.58553 19.4239H5.83351C5.57394 19.4239 5.36341 19.2135 5.36341 18.9538V9.64679Z"/>
<path d="M17.3452 1.18484H12.3602V0.242397C12.3602 0.108558 12.2517 0 12.1178 0H6.88298C6.74915 0 6.64064 0.108558 6.64064 0.242397V1.18479H1.65555C1.25437 1.18479 0.929199 1.51001 0.929199 1.91119V4.1931H18.0716V1.91125C18.0716 1.51007 17.7464 1.18484 17.3452 1.18484Z"/>
</svg>
