<svg width="13" height="13" viewBox="0 0 13 13" fill="none" xmlns="http://www.w3.org/2000/svg">
<path d="M8.51198 6.50007L12.9203 2.09162C13.0261 1.98579 13.0261 1.81425 12.9203 1.70842L11.2917 0.0794046C11.2409 0.0285911 11.1718 0 11.1001 0C11.0283 0 10.9593 0.0285911 10.9085 0.0794046L6.4999 4.48799L2.09132 0.0794046C1.98969 -0.0222225 1.80974 -0.0222225 1.70811 0.0794046L0.0793707 1.70842C-0.0264569 1.81425 -0.0264569 1.98579 0.0793707 2.09162L4.48782 6.50007L0.0793707 10.9085C-0.0264569 11.0143 -0.0264569 11.1859 0.0793707 11.2917L1.70811 12.9206C1.75893 12.9714 1.8279 13 1.89971 13C1.97153 13 2.0405 12.9714 2.09132 12.9206L6.4999 8.51201L10.9085 12.9206C10.9593 12.9714 11.0283 13 11.1001 13C11.1718 13 11.2409 12.9714 11.2917 12.9206L12.9204 11.2917C13.0263 11.1859 13.0263 11.0142 12.9204 10.9085L8.51198 6.50007Z" fill="#9BA9B3"/>
</svg>
