<svg width="17" height="17" viewBox="0 0 17 17" fill="none" xmlns="http://www.w3.org/2000/svg">
<path d="M4.30443 17C3.36695 17 2.48558 16.6349 1.8227 15.972C0.454281 14.6036 0.454281 12.377 1.8227 11.0086L9.69741 3.13388C10.6265 2.20473 12.1384 2.20473 13.0675 3.13388C13.9967 4.06302 13.9967 5.5749 13.0675 6.50405L7.27525 12.2963C7.04512 12.5265 6.67194 12.5265 6.44177 12.2963C6.21161 12.0662 6.21161 11.693 6.44177 11.4629L12.2341 5.67053C12.7036 5.20097 12.7036 4.43692 12.2341 3.96735C12.0066 3.73986 11.7041 3.6146 11.3825 3.6146C11.0608 3.6146 10.7583 3.73986 10.5309 3.96735L2.65618 11.8421C1.74734 12.7509 1.74734 14.2297 2.65618 15.1386C3.09647 15.5788 3.68183 15.8213 4.30443 15.8213C4.92703 15.8213 5.51243 15.5788 5.95268 15.1386L14.0122 7.07903C14.6653 6.42597 15.0249 5.55773 15.0249 4.63416C15.0249 3.71059 14.6653 2.84234 14.0122 2.18928C12.6641 0.841138 10.4705 0.841177 9.12243 2.18928L3.14531 8.16636C2.91518 8.39653 2.542 8.39653 2.31183 8.16636C2.08167 7.9362 2.08167 7.56305 2.31183 7.33289L8.28895 1.35577C10.0966 -0.451923 13.038 -0.451923 14.8457 1.35577C15.7214 2.23144 16.2037 3.39575 16.2037 4.63416C16.2037 5.87256 15.7214 7.03683 14.8457 7.91254L6.78616 15.972C6.12328 16.6349 5.24191 17 4.30443 17Z" fill="#9EB7CA"/>
</svg>
