<svg width="45" height="37" viewBox="0 0 45 37" fill="none" xmlns="http://www.w3.org/2000/svg">
<path d="M34.8239 4.36418C34.663 3.71404 34.1174 3.27734 33.4662 3.27734C33.2136 3.27734 32.9606 3.34664 32.7349 3.47747L4.19407 20.0276C3.56477 20.3924 3.23468 21.1696 3.40917 21.8761L4.96785 28.183C5.14255 28.8891 5.79683 29.4232 6.52347 29.453L9.77799 29.5862C9.83135 31.102 10.4154 32.5338 11.4536 33.6614C12.6045 34.9114 14.1734 35.6385 15.8711 35.7085L23.9083 36.0403C23.9974 36.0441 24.0859 36.0458 24.1742 36.0458C27.3989 36.0458 30.1109 33.6139 30.4861 30.434L39.4881 30.8026C39.5093 30.8034 39.5302 30.8039 39.551 30.8039C39.9975 30.8039 40.4063 30.6088 40.6725 30.2687C40.9398 29.9275 41.0312 29.4814 40.9234 29.0445L34.8239 4.36418ZM23.9985 33.8598L15.9611 33.528C14.8459 33.4819 13.8152 33.0044 13.0591 32.1832C12.416 31.4847 12.0382 30.6084 11.9677 29.6759L28.2965 30.3444C27.9683 32.4074 26.1364 33.9503 23.9985 33.8598ZM6.99476 27.288L5.61951 21.7237L32.9495 5.87583L38.5607 28.5804L6.99476 27.288Z" fill="#2D9BF7"/>
<path d="M44.9679 30.4076L37.8935 1.78291C37.7489 1.19792 37.1574 0.84044 36.5724 0.985352C35.9874 1.12994 35.6302 1.72148 35.7748 2.30647L42.8492 30.9312C42.9721 31.4283 43.4176 31.7608 43.9077 31.7608C43.9943 31.7608 44.0825 31.7505 44.1703 31.7288C44.7554 31.5842 45.1125 30.9927 44.9679 30.4076Z" fill="#2D9BF7"/>
<path d="M2.1508 22.4147C2.00622 21.8297 1.41457 21.4724 0.829682 21.6171C0.244687 21.7617 -0.112464 22.3532 0.0321204 22.9382L1.58949 29.24C1.71236 29.7371 2.1579 30.0696 2.64796 30.0696C2.7346 30.0696 2.82277 30.0592 2.91061 30.0375C3.49561 29.8929 3.85276 29.3014 3.70817 28.7164L2.1508 22.4147Z" fill="#2D9BF7"/>
</svg>
