<svg width="17" height="17" viewBox="0 0 17 17" fill="none" xmlns="http://www.w3.org/2000/svg">
<path d="M15.3 0H1.7C0.765 0 0 0.765 0 1.7V15.3C0 16.235 0.765 17 1.7 17H15.3C16.235 17 17 16.235 17 15.3V1.7C17 0.765 16.235 0 15.3 0ZM8.5 5.1C10.37 5.1 11.9 6.63 11.9 8.5C11.9 10.37 10.37 11.9 8.5 11.9C6.63 11.9 5.1 10.37 5.1 8.5C5.1 6.63 6.63 5.1 8.5 5.1ZM2.125 15.3C1.87 15.3 1.7 15.13 1.7 14.875V7.65H3.485C3.4 7.905 3.4 8.245 3.4 8.5C3.4 11.305 5.695 13.6 8.5 13.6C11.305 13.6 13.6 11.305 13.6 8.5C13.6 8.245 13.6 7.905 13.515 7.65H15.3V14.875C15.3 15.13 15.13 15.3 14.875 15.3H2.125ZM15.3 3.825C15.3 4.08 15.13 4.25 14.875 4.25H13.175C12.92 4.25 12.75 4.08 12.75 3.825V2.125C12.75 1.87 12.92 1.7 13.175 1.7H14.875C15.13 1.7 15.3 1.87 15.3 2.125V3.825Z"/>
</svg>
