<svg width="11" height="7" viewBox="0 0 11 7" fill="none" xmlns="http://www.w3.org/2000/svg">
<path d="M5.50233 4.55964L1.38707 0.444563C1.27403 0.331254 1.12289 0.268921 0.96174 0.268921C0.800496 0.268921 0.649447 0.331254 0.536228 0.444563L0.175821 0.805149C0.0624228 0.918279 6.7515e-08 1.06951 6.55933e-08 1.23066C6.36715e-08 1.39182 0.0624228 1.54286 0.175821 1.65608L5.07538 6.55574C5.18896 6.6694 5.34072 6.73165 5.50206 6.7312C5.66411 6.73165 5.81569 6.66949 5.92936 6.55574L10.8242 1.66064C10.9376 1.54743 11 1.39638 11 1.23513C11 1.07398 10.9376 0.922929 10.8242 0.809621L10.4638 0.449124C10.2292 0.214547 9.84732 0.214547 9.61284 0.449124L5.50233 4.55964Z" fill="#0373D2"/>
</svg>
