<svg width="17" height="11" viewBox="0 0 17 11" fill="none" xmlns="http://www.w3.org/2000/svg">
<path d="M16.9882 1.20452C16.9875 0.724765 16.597 0.334961 16.1174 0.334961C16.117 0.334961 16.1166 0.334961 16.1163 0.334961L0.869589 0.355912C0.637002 0.356211 0.418426 0.447088 0.25417 0.611775C0.0899478 0.776495 -0.000298088 0.995337 7.39747e-07 1.22786L0.0117878 9.79521C0.0120867 10.0278 0.102963 10.2464 0.267651 10.4106C0.432039 10.5746 0.650349 10.6648 0.882538 10.6648C0.882937 10.6648 0.883368 10.6648 0.8837 10.6648L16.1303 10.6438C16.6104 10.6432 17.0005 10.2521 16.9999 9.7719L16.9882 1.20452ZM15.1609 1.20704L8.50065 5.83701L1.8275 1.22537L15.1609 1.20704ZM11.3171 6.71081L15.2673 9.77429L1.72141 9.79289L5.69569 6.71081C5.88568 6.56342 5.92027 6.28996 5.77292 6.09991C5.62553 5.90992 5.35207 5.87532 5.16201 6.02268L0.881907 9.34196L0.871282 1.62307L8.25379 6.72496C8.32829 6.77645 8.41479 6.80215 8.50131 6.80215C8.58821 6.80215 8.67517 6.77616 8.74984 6.72426L16.118 1.60222L16.1292 9.34073L11.8507 6.02271C11.6609 5.87539 11.3873 5.90995 11.2399 6.09994C11.0925 6.28993 11.1271 6.56346 11.3171 6.71081Z" fill="#2793ED"/>
</svg>
