<svg width="43" height="16" viewBox="0 0 43 16" fill="none" xmlns="http://www.w3.org/2000/svg">
<path d="M0.564 1.61571C0.8695 2.02622 2.7025 4.48926 4.606 7.08913L8.084 11.8328H12.6665H17.249L19.2935 10.7609L21.338 9.71181L23.3355 10.7609L25.3565 11.8328H29.939H34.545L38.54 6.40496L42.5115 0.999953L37.835 0.931536L33.1585 0.885924L30.7615 3.30335L28.341 5.74358L26.132 3.30335L23.8995 0.885924H21.3145H18.7295L16.497 3.30335L14.288 5.74358L11.8675 3.30335L9.4705 0.885924H4.7235H0L0.564 1.61571Z"/>
<path d="M8.03699 14.1134V15.0256H21.3145H34.592V14.1134V13.2012H21.3145H8.03699V14.1134Z"/>
</svg>
