<svg width="57" height="56" viewBox="0 0 57 56" fill="none" xmlns="http://www.w3.org/2000/svg">
<g clip-path="url(#clip0)">
<path d="M15.051 25.48C13.993 25.48 13.182 25.8099 13.182 25.8099L12.958 27.1007C12.958 27.1007 13.627 26.8367 14.64 26.8367C15.215 26.8367 15.635 26.8988 15.635 27.352C15.635 27.6276 15.584 27.7295 15.584 27.7295C15.584 27.7295 15.131 27.6936 14.921 27.6936C13.586 27.6936 12.184 28.2448 12.184 29.9131C12.184 31.2271 13.103 31.5269 13.674 31.5269C14.763 31.5269 15.233 30.8418 15.257 30.8399L15.206 31.4124H16.565L17.171 27.288C17.17 25.5363 15.597 25.48 15.051 25.48ZM14.289 30.2721C13.81 30.2721 13.685 29.9179 13.685 29.7064C13.685 29.2968 13.914 28.8038 15.045 28.8038C15.309 28.8048 15.337 28.831 15.381 28.8388C15.411 29.0911 15.219 30.2721 14.289 30.2721Z" fill="#C3CED7"/>
<path d="M19.9589 26.863C20.1759 26.863 21.0129 26.9299 21.0129 26.9299L21.2079 25.6081C21.2079 25.6081 20.6659 25.4907 19.7839 25.4907C18.6419 25.4907 17.4839 25.9333 17.4839 27.4462C17.4839 29.162 19.4159 28.9873 19.4159 29.7113C19.4159 30.1926 18.8759 30.2324 18.4599 30.2324C17.7389 30.2324 17.0909 29.9937 17.0889 30.0034L16.8829 31.3145C16.9199 31.3242 17.3199 31.4969 18.6149 31.4969C18.9619 31.4969 20.9489 31.5843 20.9489 29.5938C20.9489 27.7325 19.1099 28.1003 19.1099 27.3521C19.1099 26.9794 19.4089 26.863 19.9589 26.863Z" fill="#C3CED7"/>
<path d="M23.206 27.0318H24.023L24.22 25.6227H23.45L23.607 24.7493H22.064C22.03 24.7813 21.153 29.6753 21.153 30.2693C21.153 31.1534 21.664 31.5454 22.383 31.5386C22.946 31.5348 23.385 31.3834 23.54 31.3416L23.733 30.0684C23.627 30.0684 23.472 30.113 23.335 30.113C22.798 30.113 22.739 29.8345 22.773 29.6297L23.206 27.0318Z" fill="#C3CED7"/>
<path d="M29.673 18.8567H26.919C26.549 19.3419 26.201 19.8582 25.886 20.3629H30.799C30.458 19.8369 30.081 19.3342 29.673 18.8567Z" fill="#C3CED7"/>
<path d="M51.1609 35.799C51.1309 35.7554 51.1059 35.7224 51.0859 35.702C51.0749 35.6923 51.0609 35.6816 51.0429 35.6768C51.0859 35.6738 51.1219 35.6583 51.1479 35.6321C51.1729 35.6059 51.187 35.5749 51.187 35.539C51.187 35.5137 51.179 35.4895 51.164 35.4671C51.149 35.4448 51.1269 35.4283 51.0999 35.4196C51.0749 35.4099 51.0319 35.405 50.9729 35.405H50.799V35.8951H50.881V35.6874H50.928C50.956 35.6874 50.979 35.6933 50.992 35.7049C51.013 35.7214 51.0429 35.7592 51.0779 35.8184L51.122 35.8961H51.2229L51.1609 35.799ZM50.979 35.6224H50.879V35.4749H50.9729C51.0119 35.4749 51.038 35.4778 51.053 35.4836C51.069 35.4895 51.079 35.4982 51.088 35.5089C51.096 35.5205 51.0999 35.5331 51.0999 35.5467C51.0999 35.569 51.092 35.5884 51.075 35.602C51.058 35.6146 51.025 35.6224 50.979 35.6224Z" fill="#C3CED7"/>
<path d="M31.634 21.8408H25.027C24.605 22.6162 24.325 23.2024 24.246 23.348H32.26C32.079 22.8297 31.871 22.328 31.634 21.8408Z" fill="#C3CED7"/>
<path d="M10.293 24.2874L8.77203 28.6642L8.69303 24.2874H6.44103L5.20703 31.4193H6.69603L7.63503 26.0429L7.77303 31.4193H8.83603L10.819 26.0429L9.94003 31.4193H11.52L12.737 24.2874H10.293Z" fill="#C3CED7"/>
<path d="M40.069 25.48C39.009 25.48 38.199 25.8099 38.199 25.8099L37.9739 27.1007C37.9739 27.1007 38.6439 26.8367 39.6559 26.8367C40.2309 26.8367 40.652 26.8988 40.652 27.352C40.652 27.6276 40.5989 27.7295 40.5989 27.7295C40.5989 27.7295 40.147 27.6936 39.935 27.6936C38.601 27.6936 37.2 28.2448 37.2 29.9131C37.2 31.2271 38.1199 31.5269 38.6899 31.5269C39.7779 31.5269 40.2479 30.8418 40.2729 30.8399L40.222 31.4124H41.58L42.186 27.288C42.189 25.5363 40.615 25.48 40.069 25.48ZM39.3089 30.2721C38.8289 30.2721 38.705 29.9179 38.705 29.7064C38.705 29.2968 38.9339 28.8038 40.0649 28.8038C40.3279 28.8048 40.356 28.831 40.401 28.8388C40.43 29.0911 40.2369 30.2721 39.3089 30.2721Z" fill="#C3CED7"/>
<path d="M51.2099 30.7622C51.1689 30.6885 51.1089 30.6322 51.0339 30.5934C50.9599 30.5536 50.8839 30.5342 50.8039 30.5342C50.7269 30.5352 50.6499 30.5546 50.5739 30.5934C50.4989 30.6322 50.4409 30.6885 50.3989 30.7622C50.3569 30.835 50.3359 30.9107 50.3359 30.9893C50.3359 31.0679 50.3569 31.1427 50.3989 31.2145C50.4399 31.2863 50.4979 31.3435 50.5719 31.3843C50.6469 31.4241 50.7239 31.4445 50.8039 31.4445C50.8859 31.4445 50.9639 31.4241 51.0369 31.3843C51.1109 31.3435 51.1689 31.2863 51.2099 31.2145C51.2529 31.1427 51.2719 31.0679 51.2719 30.9893C51.2719 30.9088 51.2519 30.8331 51.2099 30.7622ZM51.1449 31.1766C51.1109 31.2368 51.0629 31.2824 50.9999 31.3183C50.9379 31.3513 50.8739 31.3688 50.8069 31.3688C50.7389 31.3688 50.6739 31.3513 50.6129 31.3183C50.5499 31.2843 50.5029 31.2378 50.4669 31.1766C50.4309 31.1155 50.4149 31.0534 50.4149 30.9884C50.4149 30.9233 50.4319 30.8603 50.4689 30.7991C50.5039 30.7389 50.5509 30.6924 50.6149 30.6584C50.6789 30.6244 50.7419 30.6099 50.8069 30.6099C50.8719 30.6099 50.9359 30.6254 50.9969 30.6584C51.0609 30.6924 51.1079 30.738 51.1429 30.7991C51.1779 30.8603 51.1969 30.9233 51.1969 30.9884C51.1969 31.0534 51.1799 31.1165 51.1449 31.1766Z" fill="#C3CED7"/>
<path d="M50.963 31.1438C50.934 31.0982 50.908 31.0661 50.889 31.0467C50.877 31.036 50.864 31.0273 50.846 31.0215C50.889 31.0186 50.924 31.003 50.95 30.9768C50.975 30.9516 50.99 30.9186 50.99 30.8837C50.99 30.8594 50.982 30.8342 50.966 30.8119C50.95 30.7905 50.929 30.774 50.904 30.7643C50.879 30.7546 50.835 30.7498 50.776 30.7498H50.6V31.2389H50.682V31.0312H50.729C50.758 31.0312 50.781 31.037 50.795 31.0477C50.816 31.0652 50.844 31.102 50.881 31.1632L50.924 31.2398H51.025L50.963 31.1438ZM50.783 30.9642H50.684V30.8157H50.776C50.816 30.8157 50.842 30.8187 50.858 30.8235C50.871 30.8303 50.883 30.8371 50.891 30.8497C50.9 30.8623 50.904 30.873 50.904 30.8895C50.904 30.9109 50.895 30.9293 50.88 30.9429C50.861 30.9594 50.83 30.9642 50.783 30.9642Z" fill="#C3CED7"/>
<path d="M45.3129 25.5508C44.6219 25.5508 44.1089 26.4659 44.1089 26.4659L44.2469 25.6245H42.8089L41.8459 31.4299H43.4299C43.8809 28.9494 43.9629 26.9376 45.0339 27.3054C45.2229 26.3466 45.4049 25.9749 45.6099 25.5702C45.6099 25.5712 45.5139 25.5508 45.3129 25.5508Z" fill="#C3CED7"/>
<path d="M49.293 24.2951L48.96 26.2992C48.96 26.2992 48.38 25.5199 47.47 25.5199C46.055 25.5208 44.877 27.1755 44.877 29.0757C44.877 30.3033 45.506 31.5057 46.79 31.5057C47.715 31.5057 48.227 30.8798 48.227 30.8798L48.16 31.4145H49.661L50.841 24.2922L49.293 24.2951ZM47.336 30.05C46.78 30.05 46.52 29.5978 46.52 28.8874C46.52 27.7257 47.057 26.96 47.736 26.96C48.29 26.961 48.575 27.3308 48.575 28.2022C48.575 28.9932 48.172 30.05 47.336 30.05Z" fill="#C3CED7"/>
<path d="M55.026 10.0759H1.454C0.65 10.0759 0 10.7077 0 11.487V44.1868C0 44.9661 0.65 45.5979 1.454 45.5979H55.026C55.83 45.5979 56.48 44.9661 56.48 44.1868V11.487C56.48 10.7077 55.83 10.0759 55.026 10.0759ZM51.409 35.8699C51.367 35.9437 51.31 36 51.236 36.0397C51.162 36.0795 51.084 36.0999 51.004 36.0999C50.922 36.0999 50.844 36.0795 50.77 36.0397C50.697 36 50.639 35.9437 50.596 35.8699C50.555 35.7991 50.534 35.7234 50.534 35.6448C50.534 35.5662 50.555 35.4914 50.597 35.4177C50.638 35.3439 50.698 35.2886 50.772 35.2488C50.847 35.211 50.923 35.1906 51.003 35.1906C51.082 35.1906 51.158 35.211 51.232 35.2488C51.307 35.2886 51.366 35.3439 51.407 35.4177C51.449 35.4914 51.469 35.5671 51.469 35.6448C51.469 35.7224 51.451 35.801 51.409 35.8699ZM52.457 27.8374C52.459 35.6059 45.973 41.9062 37.967 41.9081C34.223 41.9091 30.809 40.532 28.237 38.2699C25.665 40.5281 22.258 41.9043 18.52 41.9043C10.519 41.9043 4.025 35.603 4.025 27.8374C4.025 20.1028 10.468 13.82 18.427 13.7695C18.458 13.7695 18.489 13.7695 18.52 13.7695C22.258 13.7695 25.666 15.1456 28.238 17.4039C30.809 15.1447 34.219 13.7676 37.96 13.7666C45.966 13.7637 52.457 20.061 52.459 27.8306C52.457 27.8325 52.457 27.8335 52.457 27.8374Z" fill="#C3CED7"/>
<path d="M26.7531 36.7317C27.2121 37.2771 27.6981 37.7973 28.2351 38.2689C28.2471 38.2582 28.26 38.2485 28.272 38.2388C28.272 38.2388 28.2711 38.2388 28.2711 38.2379H28.2741C28.8021 37.7711 29.2951 37.2684 29.746 36.7317H26.7531Z" fill="#C3CED7"/>
<path d="M28.7269 29.0106C28.7269 29.0106 28.9299 28.0402 28.9299 27.6452C28.9299 26.6582 28.4239 25.4548 26.7299 25.4548C25.1779 25.4558 24.0289 27.0784 24.0289 28.9126C24.0289 31.0292 25.4679 31.5319 26.6949 31.5319C27.8269 31.5319 28.3249 31.2854 28.3249 31.2854L28.5969 29.8413C28.5969 29.8413 27.7359 30.2101 26.9579 30.2101C25.3009 30.2101 25.5909 29.0106 25.5909 29.0106H28.7269ZM26.7349 26.7989C27.6059 26.7989 27.4449 27.749 27.4449 27.8247H25.7319C25.7319 27.7267 25.8939 26.7989 26.7349 26.7989Z" fill="#C3CED7"/>
<path d="M35.965 25.6537C36.75 25.6537 37.381 26.0817 37.381 26.0817L37.633 24.495C37.633 24.495 36.699 24.1282 35.895 24.1282C34.114 24.1282 32.381 25.6285 32.381 28.4458C32.381 30.3139 33.316 31.5474 35.158 31.5474C35.678 31.5474 36.508 31.3426 36.508 31.3426L36.784 29.7083C36.784 29.7083 36.028 30.0762 35.508 30.0762C34.412 30.0752 33.973 29.2639 33.973 28.3943C33.973 26.6252 34.915 25.6537 35.965 25.6537Z" fill="#C3CED7"/>
<path d="M24.818 33.7766C25.069 34.2997 25.361 34.7975 25.674 35.2828H30.817C31.129 34.7995 31.41 34.2968 31.661 33.7766H24.818Z" fill="#C3CED7"/>
<path d="M32.353 25.5529C31.662 25.5529 31.15 26.468 31.15 26.468L31.289 25.6266H29.852L28.889 31.4319H30.473C30.922 28.9524 31.006 26.9397 32.077 27.3075C32.265 26.3477 32.446 25.976 32.651 25.5703C32.651 25.5703 32.555 25.5509 32.353 25.5529Z" fill="#C3CED7"/>
</g>
<defs>
<clipPath id="clip0">
<rect width="56.48" height="54.8119" fill="white" transform="translate(0 0.43042)"/>
</clipPath>
</defs>
</svg>
