<svg width="57" height="36" viewBox="0 0 57 36" fill="none" xmlns="http://www.w3.org/2000/svg">
<path d="M15.051 15.48C13.993 15.48 13.182 15.8099 13.182 15.8099L12.958 17.1007C12.958 17.1007 13.627 16.8367 14.64 16.8367C15.215 16.8367 15.635 16.8988 15.635 17.352C15.635 17.6276 15.584 17.7295 15.584 17.7295C15.584 17.7295 15.131 17.6936 14.921 17.6936C13.586 17.6936 12.184 18.2448 12.184 19.9131C12.184 21.2271 13.103 21.5269 13.674 21.5269C14.763 21.5269 15.233 20.8418 15.257 20.8399L15.206 21.4124H16.565L17.171 17.288C17.17 15.5363 15.597 15.48 15.051 15.48ZM14.289 20.2721C13.81 20.2721 13.685 19.9179 13.685 19.7064C13.685 19.2968 13.914 18.8038 15.045 18.8038C15.309 18.8048 15.337 18.831 15.381 18.8388C15.411 19.0911 15.219 20.2721 14.289 20.2721Z" fill="#C3CED7"/>
<path d="M19.9589 16.863C20.1759 16.863 21.0129 16.9299 21.0129 16.9299L21.2079 15.6081C21.2079 15.6081 20.6659 15.4907 19.7839 15.4907C18.6419 15.4907 17.4839 15.9333 17.4839 17.4462C17.4839 19.162 19.4159 18.9873 19.4159 19.7113C19.4159 20.1926 18.8759 20.2324 18.4599 20.2324C17.7389 20.2324 17.0909 19.9937 17.0889 20.0034L16.8829 21.3145C16.9199 21.3242 17.3199 21.4969 18.6149 21.4969C18.9619 21.4969 20.9489 21.5843 20.9489 19.5938C20.9489 17.7325 19.1099 18.1003 19.1099 17.3521C19.1099 16.9794 19.4089 16.863 19.9589 16.863Z" fill="#C3CED7"/>
<path d="M23.206 17.0318H24.023L24.22 15.6227H23.45L23.607 14.7493H22.064C22.03 14.7813 21.153 19.6753 21.153 20.2693C21.153 21.1534 21.664 21.5454 22.383 21.5386C22.946 21.5348 23.385 21.3834 23.54 21.3416L23.733 20.0684C23.627 20.0684 23.472 20.113 23.335 20.113C22.798 20.113 22.739 19.8345 22.773 19.6297L23.206 17.0318Z" fill="#C3CED7"/>
<path d="M29.673 8.85669H26.919C26.549 9.34192 26.201 9.85821 25.886 10.3629H30.799C30.458 9.83686 30.081 9.33416 29.673 8.85669Z" fill="#C3CED7"/>
<path d="M51.1609 25.799C51.1309 25.7554 51.1059 25.7224 51.0859 25.702C51.0749 25.6923 51.0609 25.6816 51.0429 25.6768C51.0859 25.6738 51.1219 25.6583 51.1479 25.6321C51.1729 25.6059 51.187 25.5749 51.187 25.539C51.187 25.5137 51.179 25.4895 51.164 25.4671C51.149 25.4448 51.1269 25.4283 51.0999 25.4196C51.0749 25.4099 51.0319 25.405 50.9729 25.405H50.799V25.8951H50.881V25.6874H50.928C50.956 25.6874 50.979 25.6933 50.992 25.7049C51.013 25.7214 51.0429 25.7592 51.0779 25.8184L51.122 25.8961H51.2229L51.1609 25.799ZM50.979 25.6224H50.879V25.4749H50.9729C51.0119 25.4749 51.038 25.4778 51.053 25.4836C51.069 25.4895 51.079 25.4982 51.088 25.5089C51.096 25.5205 51.0999 25.5331 51.0999 25.5467C51.0999 25.569 51.092 25.5884 51.075 25.602C51.058 25.6146 51.025 25.6224 50.979 25.6224Z" fill="#C3CED7"/>
<path d="M31.634 11.8408H25.027C24.605 12.6162 24.325 13.2024 24.246 13.348H32.26C32.079 12.8297 31.871 12.328 31.634 11.8408Z" fill="#C3CED7"/>
<path d="M10.293 14.2874L8.77203 18.6642L8.69303 14.2874H6.44103L5.20703 21.4193H6.69603L7.63503 16.0429L7.77303 21.4193H8.83603L10.819 16.0429L9.94003 21.4193H11.52L12.737 14.2874H10.293Z" fill="#C3CED7"/>
<path d="M40.069 15.48C39.009 15.48 38.199 15.8099 38.199 15.8099L37.9739 17.1007C37.9739 17.1007 38.6439 16.8367 39.6559 16.8367C40.2309 16.8367 40.652 16.8988 40.652 17.352C40.652 17.6276 40.5989 17.7295 40.5989 17.7295C40.5989 17.7295 40.147 17.6936 39.935 17.6936C38.601 17.6936 37.2 18.2448 37.2 19.9131C37.2 21.2271 38.1199 21.5269 38.6899 21.5269C39.7779 21.5269 40.2479 20.8418 40.2729 20.8399L40.222 21.4124H41.58L42.186 17.288C42.189 15.5363 40.615 15.48 40.069 15.48ZM39.3089 20.2721C38.8289 20.2721 38.705 19.9179 38.705 19.7064C38.705 19.2968 38.9339 18.8038 40.0649 18.8038C40.3279 18.8048 40.356 18.831 40.401 18.8388C40.43 19.0911 40.2369 20.2721 39.3089 20.2721Z" fill="#C3CED7"/>
<path d="M51.2099 20.7622C51.1689 20.6885 51.1089 20.6322 51.0339 20.5934C50.9599 20.5536 50.8839 20.5342 50.8039 20.5342C50.7269 20.5352 50.6499 20.5546 50.5739 20.5934C50.4989 20.6322 50.4409 20.6885 50.3989 20.7622C50.3569 20.835 50.3359 20.9107 50.3359 20.9893C50.3359 21.0679 50.3569 21.1427 50.3989 21.2145C50.4399 21.2863 50.4979 21.3435 50.5719 21.3843C50.6469 21.4241 50.7239 21.4445 50.8039 21.4445C50.8859 21.4445 50.9639 21.4241 51.0369 21.3843C51.1109 21.3435 51.1689 21.2863 51.2099 21.2145C51.2529 21.1427 51.2719 21.0679 51.2719 20.9893C51.2719 20.9088 51.2519 20.8331 51.2099 20.7622ZM51.1449 21.1766C51.1109 21.2368 51.0629 21.2824 50.9999 21.3183C50.9379 21.3513 50.8739 21.3688 50.8069 21.3688C50.7389 21.3688 50.6739 21.3513 50.6129 21.3183C50.5499 21.2843 50.5029 21.2378 50.4669 21.1766C50.4309 21.1155 50.4149 21.0534 50.4149 20.9884C50.4149 20.9233 50.4319 20.8603 50.4689 20.7991C50.5039 20.7389 50.5509 20.6924 50.6149 20.6584C50.6789 20.6244 50.7419 20.6099 50.8069 20.6099C50.8719 20.6099 50.9359 20.6254 50.9969 20.6584C51.0609 20.6924 51.1079 20.738 51.1429 20.7991C51.1779 20.8603 51.1969 20.9233 51.1969 20.9884C51.1969 21.0534 51.1799 21.1165 51.1449 21.1766Z" fill="#C3CED7"/>
<path d="M50.963 21.1438C50.934 21.0982 50.908 21.0661 50.889 21.0467C50.877 21.036 50.864 21.0273 50.846 21.0215C50.889 21.0186 50.924 21.003 50.95 20.9768C50.975 20.9516 50.99 20.9186 50.99 20.8837C50.99 20.8594 50.982 20.8342 50.966 20.8119C50.95 20.7905 50.929 20.774 50.904 20.7643C50.879 20.7546 50.835 20.7498 50.776 20.7498H50.6V21.2389H50.682V21.0312H50.729C50.758 21.0312 50.781 21.037 50.795 21.0477C50.816 21.0652 50.844 21.102 50.881 21.1632L50.924 21.2398H51.025L50.963 21.1438ZM50.783 20.9642H50.684V20.8157H50.776C50.816 20.8157 50.842 20.8187 50.858 20.8235C50.871 20.8303 50.883 20.8371 50.891 20.8497C50.9 20.8623 50.904 20.873 50.904 20.8895C50.904 20.9109 50.895 20.9293 50.88 20.9429C50.861 20.9594 50.83 20.9642 50.783 20.9642Z" fill="#C3CED7"/>
<path d="M45.3129 15.5508C44.6219 15.5508 44.1089 16.4659 44.1089 16.4659L44.2469 15.6245H42.8089L41.8459 21.4299H43.4299C43.8809 18.9494 43.9629 16.9376 45.0339 17.3054C45.2229 16.3466 45.4049 15.9749 45.6099 15.5702C45.6099 15.5712 45.5139 15.5508 45.3129 15.5508Z" fill="#C3CED7"/>
<path d="M49.293 14.2951L48.96 16.2992C48.96 16.2992 48.38 15.5199 47.47 15.5199C46.055 15.5208 44.877 17.1755 44.877 19.0757C44.877 20.3033 45.506 21.5057 46.79 21.5057C47.715 21.5057 48.227 20.8798 48.227 20.8798L48.16 21.4145H49.661L50.841 14.2922L49.293 14.2951ZM47.336 20.05C46.78 20.05 46.52 19.5978 46.52 18.8874C46.52 17.7257 47.057 16.96 47.736 16.96C48.29 16.961 48.575 17.3308 48.575 18.2022C48.575 18.9932 48.172 20.05 47.336 20.05Z" fill="#C3CED7"/>
<path d="M55.026 0.0759277H1.454C0.65 0.0759277 0 0.7077 0 1.48698V34.1868C0 34.9661 0.65 35.5979 1.454 35.5979H55.026C55.83 35.5979 56.48 34.9661 56.48 34.1868V1.48698C56.48 0.7077 55.83 0.0759277 55.026 0.0759277ZM51.409 25.8699C51.367 25.9437 51.31 26 51.236 26.0397C51.162 26.0795 51.084 26.0999 51.004 26.0999C50.922 26.0999 50.844 26.0795 50.77 26.0397C50.697 26 50.639 25.9437 50.596 25.8699C50.555 25.7991 50.534 25.7234 50.534 25.6448C50.534 25.5662 50.555 25.4914 50.597 25.4177C50.638 25.3439 50.698 25.2886 50.772 25.2488C50.847 25.211 50.923 25.1906 51.003 25.1906C51.082 25.1906 51.158 25.211 51.232 25.2488C51.307 25.2886 51.366 25.3439 51.407 25.4177C51.449 25.4914 51.469 25.5671 51.469 25.6448C51.469 25.7224 51.451 25.801 51.409 25.8699ZM52.457 17.8374C52.459 25.6059 45.973 31.9062 37.967 31.9081C34.223 31.9091 30.809 30.532 28.237 28.2699C25.665 30.5281 22.258 31.9043 18.52 31.9043C10.519 31.9043 4.025 25.603 4.025 17.8374C4.025 10.1028 10.468 3.81998 18.427 3.76952C18.458 3.76952 18.489 3.76952 18.52 3.76952C22.258 3.76952 25.666 5.14564 28.238 7.40391C30.809 5.14467 34.219 3.76758 37.96 3.76661C45.966 3.76369 52.457 10.061 52.459 17.8306C52.457 17.8325 52.457 17.8335 52.457 17.8374Z" fill="#C3CED7"/>
<path d="M26.7531 26.7317C27.2121 27.2771 27.6981 27.7973 28.2351 28.2689C28.2471 28.2582 28.26 28.2485 28.272 28.2388C28.272 28.2388 28.2711 28.2388 28.2711 28.2379H28.2741C28.8021 27.7711 29.2951 27.2684 29.746 26.7317H26.7531Z" fill="#C3CED7"/>
<path d="M28.7269 19.0106C28.7269 19.0106 28.9299 18.0402 28.9299 17.6452C28.9299 16.6582 28.4239 15.4548 26.7299 15.4548C25.1779 15.4558 24.0289 17.0784 24.0289 18.9126C24.0289 21.0292 25.4679 21.5319 26.6949 21.5319C27.8269 21.5319 28.3249 21.2854 28.3249 21.2854L28.5969 19.8413C28.5969 19.8413 27.7359 20.2101 26.9579 20.2101C25.3009 20.2101 25.5909 19.0106 25.5909 19.0106H28.7269ZM26.7349 16.7989C27.6059 16.7989 27.4449 17.749 27.4449 17.8247H25.7319C25.7319 17.7267 25.8939 16.7989 26.7349 16.7989Z" fill="#C3CED7"/>
<path d="M35.965 15.6537C36.75 15.6537 37.381 16.0817 37.381 16.0817L37.633 14.495C37.633 14.495 36.699 14.1282 35.895 14.1282C34.114 14.1282 32.381 15.6285 32.381 18.4458C32.381 20.3139 33.316 21.5474 35.158 21.5474C35.678 21.5474 36.508 21.3426 36.508 21.3426L36.784 19.7083C36.784 19.7083 36.028 20.0762 35.508 20.0762C34.412 20.0752 33.973 19.2639 33.973 18.3943C33.973 16.6252 34.915 15.6537 35.965 15.6537Z" fill="#C3CED7"/>
<path d="M24.818 23.7766C25.069 24.2997 25.361 24.7975 25.674 25.2828H30.817C31.129 24.7995 31.41 24.2968 31.661 23.7766H24.818Z" fill="#C3CED7"/>
<path d="M32.353 15.5529C31.662 15.5529 31.15 16.468 31.15 16.468L31.289 15.6266H29.852L28.889 21.4319H30.473C30.922 18.9524 31.006 16.9397 32.077 17.3075C32.265 16.3477 32.446 15.976 32.651 15.5703C32.651 15.5703 32.555 15.5509 32.353 15.5529Z" fill="#C3CED7"/>
</svg>
