<svg width="15" height="15" viewBox="0 0 15 15" fill="none" xmlns="http://www.w3.org/2000/svg">
<path d="M9.82249 7.50008L14.909 2.41341C15.0311 2.2913 15.0311 2.09336 14.909 1.97125L13.0298 0.0916207C12.9712 0.0329897 12.8915 0 12.8088 0C12.7259 0 12.6463 0.0329897 12.5877 0.0916207L7.50086 5.17845L2.41403 0.0916207C2.29677 -0.0256413 2.08914 -0.0256413 1.97188 0.0916207L0.0925582 1.97125C-0.0295507 2.09336 -0.0295507 2.2913 0.0925582 2.41341L5.17923 7.50008L0.0925582 12.5867C-0.0295507 12.7089 -0.0295507 12.9068 0.0925582 13.0289L1.97188 14.9084C2.03051 14.967 2.11009 15 2.19296 15C2.27582 15 2.3554 14.967 2.41403 14.9084L7.50086 9.82155L12.5877 14.9084C12.6463 14.967 12.7259 15 12.8088 15C12.8915 15 12.9712 14.967 13.0298 14.9084L14.9092 13.0289C15.0313 12.9068 15.0313 12.7087 14.9092 12.5867L9.82249 7.50008Z" fill="#FD6B3D"/>
</svg>
