<svg width="17" height="17" viewBox="0 0 17 17" fill="none" xmlns="http://www.w3.org/2000/svg">
<g clip-path="url(#clip0)">
<path d="M7.66323 11.9745C6.34533 11.8371 5.15705 11.5125 4.1397 10.7168C4.01347 10.6178 3.88314 10.5224 3.76794 10.4118C3.32265 9.98415 3.27778 9.49434 3.63013 8.98958C3.93156 8.55764 4.43757 8.44209 4.96352 8.69011C5.06536 8.73818 5.1624 8.79818 5.25534 8.86264C7.15135 10.1654 9.75598 10.2014 11.6591 8.92121C11.8477 8.77664 12.0492 8.65877 12.2828 8.59859C12.737 8.48197 13.1606 8.6488 13.4043 9.0462C13.6828 9.50004 13.6792 9.94302 13.3361 10.2954C12.8098 10.8356 12.1769 11.2264 11.4736 11.4991C10.8086 11.7569 10.0802 11.8867 9.3593 11.9729C9.46808 12.0913 9.51936 12.1495 9.58737 12.2179C10.5663 13.2014 11.5494 14.1809 12.5251 15.1674C12.8575 15.5036 12.927 15.9204 12.7439 16.3114C12.5438 16.7387 12.0959 17.0198 11.6566 16.9897C11.3783 16.9705 11.1613 16.832 10.9685 16.6377C10.2298 15.8944 9.47716 15.1647 8.7534 14.4073C8.54278 14.1871 8.44147 14.2288 8.25559 14.42C7.51242 15.185 6.75715 15.9384 5.99743 16.6874C5.6563 17.0237 5.25035 17.0843 4.85473 16.8921C4.43419 16.6883 4.16658 16.259 4.18724 15.8276C4.20148 15.5358 4.34499 15.3129 4.54529 15.1129C5.51404 14.1456 6.48011 13.1758 7.44655 12.2069C7.51047 12.1424 7.57011 12.074 7.66323 11.9745Z"/>
<path d="M8.46603 8.6048C6.11493 8.59678 4.18705 6.64772 4.20076 4.29288C4.21429 1.91205 6.14342 -0.00657078 8.51766 1.69137e-05C10.8967 0.00642656 12.8063 1.95265 12.7943 4.35822C12.7822 6.70825 10.841 8.61299 8.46603 8.6048ZM10.6028 4.29858C10.5987 3.12935 9.66748 2.19853 8.50057 2.19746C7.32386 2.19621 6.38431 3.14395 6.39339 4.32386C6.40212 5.48864 7.34131 6.41287 8.51143 6.4086C9.67798 6.4045 10.6067 5.46763 10.6028 4.29858Z"/>
</g>
<defs>
<clipPath id="clip0">
<rect width="17" height="17" fill="white"/>
</clipPath>
</defs>
</svg>
