<svg width="11" height="17" viewBox="0 0 11 17" fill="none" xmlns="http://www.w3.org/2000/svg">
<path d="M4.66372 11.9743C3.34582 11.8369 2.15754 11.5123 1.14019 10.7166C1.01395 10.6176 0.883624 10.5222 0.768428 10.4116C0.323135 9.98396 0.278268 9.49416 0.63062 8.9894C0.932052 8.55746 1.43806 8.44191 1.96401 8.68993C2.06585 8.738 2.16288 8.798 2.25582 8.86245C4.15184 10.1652 6.75647 10.2012 8.6596 8.92103C8.84815 8.77646 9.0497 8.65859 9.2833 8.59841C9.73749 8.48179 10.1611 8.64862 10.4048 9.04602C10.6833 9.49986 10.6797 9.94284 10.3366 10.2952C9.81031 10.8354 9.17736 11.2262 8.47408 11.499C7.80908 11.7568 7.08069 11.8866 6.35978 11.9727C6.46857 12.0911 6.51985 12.1494 6.58786 12.2177C7.56676 13.2013 8.54993 14.1807 9.52562 15.1672C9.85803 15.5034 9.92747 15.9202 9.74444 16.3112C9.54431 16.7385 9.09635 17.0196 8.65711 16.9895C8.37882 16.9703 8.16179 16.8318 7.96896 16.6375C7.23025 15.8942 6.47765 15.1646 5.75389 14.4072C5.54326 14.1869 5.44196 14.2286 5.25608 14.4198C4.51291 15.1849 3.75764 15.9382 2.99792 16.6872C2.65678 17.0235 2.25084 17.0841 1.85522 16.892C1.43468 16.6881 1.16707 16.2588 1.18773 15.8274C1.20197 15.5356 1.34547 15.3127 1.54578 15.1128C2.51452 14.1454 3.4806 13.1756 4.44704 12.2067C4.51095 12.1422 4.5706 12.0739 4.66372 11.9743Z" fill="#BABABA"/>
<path d="M5.46651 8.6047C3.11542 8.59669 1.18754 6.64762 1.20124 4.29279C1.21478 1.91196 3.1439 -0.00666234 5.51815 -7.4639e-05C7.8972 0.00633501 9.80674 1.95255 9.79481 4.35813C9.7827 6.70816 7.84147 8.61289 5.46651 8.6047ZM7.60324 4.29849C7.59915 3.12926 6.66797 2.19844 5.50105 2.19737C4.32435 2.19612 3.3848 3.14386 3.39388 4.32377C3.4026 5.48855 4.3418 6.41278 5.51192 6.40851C6.67847 6.40441 7.60716 5.46754 7.60324 4.29849Z" fill="#BABABA"/>
</svg>
