<svg width="15" height="15" viewBox="0 0 15 15" fill="none" xmlns="http://www.w3.org/2000/svg">
<path d="M15.0002 1.43806C15.0002 0.650253 14.3634 0 13.5622 0C13.3157 0 13.0787 0.0619125 12.8687 0.177956L14.8223 2.13158C14.9383 1.92158 15.0002 1.68468 15.0002 1.43806Z"/>
<path d="M0.0280171 14.4065C-0.0325221 14.5679 0.00684555 14.7497 0.128725 14.8716C0.25873 15.0016 0.443552 15.0286 0.593812 14.9723L4.09456 13.6594L1.34077 10.9058L0.0280171 14.4065Z"/>
<path d="M12.047 0.599693C12.0283 0.580925 11.919 0.470947 11.7363 0.470947H9.93269C9.37537 0.470947 8.85134 0.688042 8.45721 1.08218L5.18282 4.35656C5.01551 4.52387 5.00006 4.79636 5.15936 4.97145C5.32942 5.15822 5.61884 5.16337 5.79554 4.98679C5.79554 4.98679 5.79565 4.98667 5.79565 4.98656L9.07862 1.70359C9.30682 1.47551 9.61008 1.34985 9.93269 1.34985H10.6753L1.85156 10.1737L4.82439 13.1464L14.3983 3.57253C14.57 3.40086 14.57 3.12266 14.3983 2.951L12.047 0.599693Z"/>
</svg>
