<svg width="18" height="18" viewBox="0 0 18 18" fill="none" xmlns="http://www.w3.org/2000/svg">
<path d="M11.7765 0C8.4219 0 5.69272 2.72918 5.69272 6.08375C5.69272 6.82952 5.82522 7.55423 6.08685 8.24245L0.26976 14.06C0.186615 14.1431 0.139893 14.2559 0.139893 14.3735V17.5566C0.139893 17.8015 0.338385 18 0.583248 18H3.20647C3.32392 18 3.43656 17.9534 3.51971 17.8704L4.40371 16.9877C4.48703 16.9046 4.53383 16.7917 4.53383 16.674V15.5885H5.61794C5.8628 15.5885 6.06129 15.39 6.06129 15.1451V14.7106H6.49586C6.74069 14.7106 6.93922 14.5121 6.93922 14.2673V13.3132H7.89322C8.01078 13.3132 8.12352 13.2665 8.2067 13.1834L9.61721 11.7729C10.3055 12.0348 11.0303 12.1674 11.7764 12.1674C15.131 12.1674 17.8602 9.43826 17.8602 6.08368C17.8602 2.72918 15.131 0 11.7765 0ZM11.7765 11.2807C11.0508 11.2807 10.3489 11.1342 9.69033 10.845C9.52004 10.7703 9.32826 10.8114 9.20268 10.9338C9.20131 10.9351 9.19997 10.9362 9.19864 10.9375L7.70963 12.4265H6.49593C6.25107 12.4265 6.05258 12.625 6.05258 12.8699V13.8239H5.61801C5.37318 13.8239 5.17465 14.0224 5.17465 14.2673V14.7018H4.09051C3.84568 14.7018 3.64715 14.9003 3.64715 15.1451V16.4901L3.02302 17.1133H1.02667V16.4867L6.44569 11.0677C6.60154 10.9119 6.60154 10.6593 6.44569 10.5035C6.28985 10.3476 6.03728 10.3476 5.88133 10.5035L1.02667 15.3581V14.5571L6.92224 8.66116C6.92357 8.65983 6.92459 8.6586 6.92582 8.6573C7.04824 8.53182 7.08951 8.34005 7.01477 8.16961C6.72592 7.51106 6.57953 6.80924 6.57953 6.08379C6.57953 3.21813 8.91092 0.886746 11.7766 0.886746C14.6422 0.886746 16.9735 3.2181 16.9735 6.08379C16.9735 8.94938 14.6421 11.2807 11.7765 11.2807Z"/>
<path d="M13.6277 2.57147C12.712 2.57147 11.967 3.31643 11.967 4.23215C11.967 5.14786 12.712 5.89282 13.6277 5.89282C14.5434 5.89282 15.2884 5.14786 15.2884 4.23215C15.2884 3.31643 14.5435 2.57147 13.6277 2.57147ZM13.6277 5.00611C13.201 5.00611 12.8538 4.65891 12.8538 4.23215C12.8538 3.80539 13.201 3.45818 13.6277 3.45818C14.0545 3.45818 14.4017 3.80539 14.4017 4.23215C14.4017 4.65891 14.0545 5.00611 13.6277 5.00611Z"/>
</svg>
