<svg width="57" height="36" viewBox="0 0 57 36" fill="none" xmlns="http://www.w3.org/2000/svg">
<path d="M55.026 0.0759277H1.454C0.65 0.0759277 0 0.7077 0 1.48698V34.1868C0 34.9661 0.65 35.5979 1.454 35.5979H55.026C55.83 35.5979 56.48 34.9661 56.48 34.1868V1.48698C56.48 0.7077 55.83 0.0759277 55.026 0.0759277ZM4.373 10.8102H10.401C11.214 10.8403 11.869 11.0917 12.095 11.935L13.406 18.0538C12.118 14.8532 9.014 12.1902 4.323 11.0878L4.373 10.8102ZM11.667 24.7655L8.185 13.2209C10.688 14.7756 12.82 17.2425 13.571 18.9592L13.977 20.3848L17.785 10.9432H21.905L15.782 24.7626L11.667 24.7655ZM24.933 24.7752H21.045L23.476 10.9286H27.366L24.933 24.7752ZM31.699 24.9829C29.956 24.9654 28.277 24.6306 27.367 24.2434L27.914 21.1447L28.415 21.365C29.692 21.8823 30.519 22.0919 32.076 22.0919C33.193 22.0919 34.39 21.6678 34.401 20.74C34.408 20.1335 33.9 19.7007 32.386 19.0213C30.91 18.3595 28.956 17.2493 28.98 15.2608C29.001 12.5697 31.709 10.6918 35.552 10.6918C37.058 10.6918 38.265 10.9927 39.035 11.2732L38.51 14.2748L38.159 14.1147C37.443 13.8352 36.522 13.5654 35.249 13.5848C33.727 13.5848 33.021 14.2001 33.021 14.7756C33.013 15.4238 33.845 15.8508 35.205 16.4933C37.448 17.4812 38.485 18.6797 38.471 20.2548C38.441 23.1274 35.788 24.9829 31.699 24.9829ZM48.549 24.7811C48.549 24.7811 48.194 23.1895 48.076 22.7062C47.51 22.7062 43.542 22.7004 43.096 22.7004C42.945 23.074 42.279 24.7811 42.279 24.7811H38.196L43.969 12.0922C44.379 11.1907 45.074 10.9432 46.006 10.9432H49.01L52.157 24.7801L48.549 24.7811Z" fill="#C3CED7"/>
</svg>
