<svg width="18" height="18" viewBox="0 0 18 18" fill="none" xmlns="http://www.w3.org/2000/svg">
<path d="M14.2248 11.1503C13.8563 10.7666 13.4118 10.5615 12.9407 10.5615C12.4734 10.5615 12.0252 10.7628 11.6415 11.1465L10.441 12.3432C10.3422 12.29 10.2434 12.2407 10.1484 12.1913C10.0117 12.1229 9.88251 12.0583 9.77233 11.9899C8.64782 11.2757 7.62588 10.3449 6.64574 9.14065C6.17086 8.54041 5.85174 8.03514 5.62 7.52227C5.93152 7.23734 6.22025 6.94102 6.50137 6.65609C6.60775 6.54972 6.71412 6.43955 6.82049 6.33318C7.61829 5.53538 7.61829 4.50205 6.82049 3.70425L5.78336 2.66712C5.66559 2.54935 5.54402 2.42778 5.43005 2.30621C5.20211 2.07067 4.96277 1.82754 4.71583 1.59959C4.34733 1.23489 3.90664 1.04114 3.44316 1.04114C2.97968 1.04114 2.5314 1.23489 2.15149 1.59959C2.14769 1.60339 2.14769 1.60339 2.1439 1.60719L0.852227 2.91026C0.365952 3.39653 0.0886238 3.98918 0.0278394 4.6768C-0.0633371 5.78612 0.263379 6.81945 0.514114 7.49568C1.12956 9.15585 2.04892 10.6945 3.42037 12.3432C5.08434 14.3301 7.08642 15.8991 9.37344 17.0046C10.2472 17.4187 11.4135 17.9088 12.7166 17.9924C12.7964 17.9962 12.8799 18 12.9559 18C13.8335 18 14.5705 17.6847 15.148 17.0578C15.1517 17.0502 15.1593 17.0464 15.1631 17.0388C15.3607 16.7995 15.5886 16.5829 15.828 16.3512C15.9913 16.1954 16.1585 16.0321 16.3218 15.8611C16.698 15.4698 16.8955 15.0139 16.8955 14.5467C16.8955 14.0756 16.6942 13.6235 16.3104 13.2436L14.2248 11.1503ZM15.5848 15.1507C15.581 15.1507 15.581 15.1545 15.5848 15.1507C15.4367 15.3103 15.2847 15.4546 15.1214 15.6142C14.8744 15.8497 14.6237 16.0967 14.3881 16.374C14.0044 16.7843 13.5524 16.978 12.9597 16.978C12.9027 16.978 12.8419 16.978 12.785 16.9742C11.6566 16.9021 10.6081 16.4614 9.82172 16.0853C7.67147 15.0443 5.78336 13.5665 4.21436 11.6936C2.9189 10.1322 2.05272 8.68857 1.47907 7.13857C1.12576 6.19261 0.99659 5.4556 1.05358 4.76038C1.09157 4.3159 1.26252 3.94739 1.57784 3.63207L2.87331 2.3366C3.05946 2.16185 3.25701 2.06687 3.45076 2.06687C3.6901 2.06687 3.88385 2.21124 4.00542 2.33281C4.00922 2.3366 4.01301 2.3404 4.01681 2.3442C4.24855 2.56075 4.4689 2.78489 4.70064 3.02423C4.81841 3.1458 4.93998 3.26737 5.06154 3.39273L6.09868 4.42987C6.50137 4.83256 6.50137 5.20487 6.09868 5.60756C5.98851 5.71774 5.88213 5.82791 5.77196 5.93428C5.45284 6.26099 5.14892 6.56492 4.81841 6.86124C4.81081 6.86884 4.80321 6.87264 4.79941 6.88024C4.4727 7.20695 4.53348 7.52607 4.60186 7.74261C4.60566 7.75401 4.60946 7.76541 4.61326 7.77681C4.88299 8.43024 5.26289 9.04568 5.84034 9.77889L5.84414 9.78269C6.89267 11.0744 7.99819 12.0811 9.21768 12.8523C9.37344 12.9511 9.53299 13.0309 9.68495 13.1068C9.82172 13.1752 9.95089 13.2398 10.0611 13.3082C10.0763 13.3158 10.0915 13.3272 10.1066 13.3348C10.2358 13.3994 10.3574 13.4298 10.4827 13.4298C10.7981 13.4298 10.9956 13.2322 11.0602 13.1676L12.3595 11.8684C12.4886 11.7392 12.6938 11.5834 12.9331 11.5834C13.1687 11.5834 13.3624 11.7316 13.4802 11.8608C13.484 11.8646 13.484 11.8646 13.4878 11.8684L15.581 13.9616C15.9723 14.3491 15.9723 14.748 15.5848 15.1507Z"/>
<path d="M9.72758 4.28172C10.7229 4.44888 11.6271 4.91995 12.3489 5.64177C13.0707 6.36358 13.538 7.26775 13.7089 8.2631C13.7507 8.51383 13.9673 8.68859 14.2142 8.68859C14.2446 8.68859 14.2712 8.68479 14.3016 8.68099C14.5827 8.6354 14.7689 8.36947 14.7233 8.08834C14.5181 6.88405 13.9483 5.78613 13.0783 4.91616C12.2083 4.04618 11.1104 3.47633 9.90613 3.27118C9.625 3.22559 9.36287 3.41174 9.31348 3.68907C9.2641 3.9664 9.44645 4.23613 9.72758 4.28172Z"/>
<path d="M17.9788 7.94018C17.6406 5.95709 16.7061 4.15255 15.2701 2.71652C13.834 1.28049 12.0295 0.345932 10.0464 0.00781895C9.76907 -0.0415684 9.50693 0.148383 9.45755 0.425712C9.41196 0.706839 9.59811 0.968972 9.87924 1.01836C11.6496 1.31848 13.2642 2.15807 14.5482 3.43834C15.8323 4.72241 16.6681 6.33699 16.9682 8.10734C17.01 8.35807 17.2265 8.53283 17.4735 8.53283C17.5039 8.53283 17.5305 8.52903 17.5609 8.52523C17.8382 8.48344 18.0281 8.21751 17.9788 7.94018Z"/>
</svg>
