<svg width="13" height="13" viewBox="0 0 13 13" fill="none" xmlns="http://www.w3.org/2000/svg">
<path d="M12.7248 4.8544H8.1456V0.275161C8.1456 0.123272 8.02233 0 7.87044 0H5.12956C4.97767 0 4.8544 0.123272 4.8544 0.275161V4.8544H0.275161C0.123272 4.8544 0 4.97767 0 5.12956V7.87044C0 8.02233 0.123272 8.1456 0.275161 8.1456H4.8544V12.7248C4.8544 12.8767 4.97767 13 5.12956 13H7.87044C8.02233 13 8.1456 12.8767 8.1456 12.7248V8.1456H12.7248C12.8767 8.1456 13 8.02233 13 7.87044V5.12956C13 4.97767 12.877 4.8544 12.7248 4.8544Z" fill="#34BB09"/>
</svg>
