<svg width="21" height="21" viewBox="0 0 21 21" fill="none" xmlns="http://www.w3.org/2000/svg">
<path d="M20.625 6H0.375C0.167908 6 0 6.16791 0 6.375V16.875C0 17.0821 0.167908 17.25 0.375 17.25H5.25V12H4.125V11.25H16.875V12H15.75V17.25H20.625C20.8321 17.25 21 17.0821 21 16.875V6.375C21 6.16791 20.8321 6 20.625 6ZM18.375 7.125H16.875V6.375H18.375V7.125ZM20.25 7.125H18.75V6.375H20.25V7.125Z"/>
<path d="M6 1.125H15V5.25H6V1.125Z"/>
<path d="M6 19.875H15V12H6V19.875ZM6.75 12.75H14.25V13.5H6.75V12.75ZM6.75 13.875H14.25V14.625H6.75V13.875ZM6.75 15H14.25V15.75H6.75V15Z"/>
</svg>
