<svg width="19" height="19" viewBox="0 0 19 19" fill="none" xmlns="http://www.w3.org/2000/svg">
<path fill-rule="evenodd" clip-rule="evenodd" d="M9.5 5C6.98 5 5 6.98 5 9.5C5 12.02 6.98 14 9.5 14C12.02 14 14 12.02 14 9.5C14 6.98 12.02 5 9.5 5ZM9.5 0.5C4.55 0.5 0.5 4.55 0.5 9.5C0.5 14.45 4.55 18.5 9.5 18.5C14.45 18.5 18.5 14.45 18.5 9.5C18.5 4.55 14.45 0.5 9.5 0.5ZM9.4998 16.7C5.5398 16.7 2.2998 13.46 2.2998 9.5C2.2998 5.54 5.5398 2.3 9.4998 2.3C13.4598 2.3 16.6998 5.54 16.6998 9.5C16.6998 13.46 13.4598 16.7 9.4998 16.7Z" fill="#34BB09"/>
</svg>
