<svg width="48" height="42" viewBox="0 0 48 42" fill="none" xmlns="http://www.w3.org/2000/svg">
<path d="M47.0422 10.9186L37.2714 1.14773C36.6528 0.52911 35.8304 0.188477 34.9556 0.188477C34.0808 0.188477 33.2584 0.52911 32.64 1.14773L30.3438 3.44374C29.9904 3.79708 29.7386 4.2127 29.5806 4.65483L18.8373 2.73142C18.8365 2.73124 18.8356 2.73124 18.8349 2.73106C14.0043 1.77217 9.28792 4.91267 8.31377 9.74381L7.81826 12.2018C7.27099 14.9161 9.03426 17.5695 11.7486 18.1167C14.4631 18.6636 17.1165 16.9007 17.6637 14.1864L17.9666 12.6833L22.7843 13.1046L35.3656 25.6858L37.6458 27.966C38.1075 28.4278 38.1073 29.1791 37.6458 29.6409C37.1842 30.1024 36.4329 30.1026 35.9711 29.6409L29.8632 23.5329C29.4377 23.1075 28.7478 23.1075 28.3225 23.5329C27.8971 23.9583 27.8971 24.6481 28.3225 25.0736L34.4305 31.1815C34.6542 31.4052 34.7773 31.7026 34.7773 32.0189C34.7773 32.3352 34.6542 32.6325 34.4305 32.8562C33.9686 33.3179 33.2174 33.3177 32.7558 32.8562L26.6478 26.7482C26.2224 26.3228 25.5324 26.3228 25.1072 26.7482C24.6818 27.1736 24.6818 27.8634 25.1072 28.2889L31.2152 34.3968C31.6769 34.8584 31.6769 35.6098 31.2152 36.0715C30.9915 36.2952 30.694 36.4183 30.3779 36.4183C30.0616 36.4183 29.7642 36.2952 29.5405 36.0715L23.4325 29.9635C23.0071 29.5381 22.3171 29.5381 21.8919 29.9635C21.4665 30.389 21.4665 31.0788 21.8919 31.5042L27.9998 37.6121C28.4616 38.0739 28.4614 38.8252 27.9998 39.287C27.5383 39.7485 26.7869 39.7487 26.3252 39.287L4.71371 17.6759L1.85973 14.8219C1.4343 14.3965 0.744317 14.3965 0.319071 14.8219C-0.106357 15.2473 -0.106357 15.9371 0.319071 16.3625L3.17305 19.2165L6.27887 22.3223L4.56681 24.0344C4.00629 24.5949 3.69744 25.3403 3.69744 26.1332C3.69744 26.9262 4.00611 27.6715 4.56681 28.232L5.12552 28.7907C5.61558 29.2808 6.24692 29.5782 6.92764 29.6454C6.99482 30.3261 7.29224 30.9575 7.78231 31.4473L8.34101 32.0062C8.84415 32.5094 9.48456 32.7932 10.1428 32.8587C10.2094 33.5402 10.5072 34.1724 10.9978 34.6628L11.5565 35.2215C12.0466 35.7116 12.6779 36.009 13.3586 36.0762C13.4258 36.7569 13.7232 37.3883 14.2133 37.8783L14.772 38.437C15.3507 39.0157 16.1107 39.305 16.8708 39.305C17.6309 39.305 18.391 39.0157 18.9696 38.437L20.6817 36.725L24.7844 40.8276C25.4197 41.463 26.2642 41.8127 27.1624 41.8127C28.0607 41.8127 28.9054 41.4628 29.5405 40.8276C30.1422 40.2259 30.484 39.4355 30.5186 38.5905C31.3639 38.5558 32.1541 38.2141 32.756 37.6123C33.3763 36.9921 33.6993 36.1879 33.7329 35.3737C34.5469 35.3401 35.3512 35.0171 35.9713 34.397C36.5916 33.7768 36.9146 32.9726 36.9482 32.1584C37.7624 32.1248 38.5667 31.8018 39.1868 31.1815C40.4981 29.8702 40.4981 27.7367 39.1868 26.4254L37.677 24.9156L43.201 19.3916L47.0424 15.5502C48.3191 14.2732 48.3191 12.1954 47.0422 10.9186ZM6.10747 26.6912C5.7997 26.3834 5.7997 25.8828 6.10747 25.5751L7.71295 23.9696L9.38778 25.6444L7.78231 27.2499C7.47472 27.5577 6.97376 27.5575 6.66617 27.2499L6.10747 26.6912ZM9.32296 29.9067C9.01519 29.5989 9.01519 29.0983 9.32296 28.7907L10.9284 27.1853L12.6033 28.8601L10.998 30.4656C10.6902 30.7732 10.1893 30.7733 9.88185 30.4656L9.32296 29.9067ZM12.5383 33.1222C12.3892 32.9731 12.3071 32.7748 12.3071 32.5642C12.3071 32.3536 12.3892 32.1553 12.5383 32.0062L14.1438 30.4008L15.8184 32.0754L14.2129 33.6809C13.9053 33.9885 13.4046 33.9885 13.097 33.6809L12.5383 33.1222ZM17.4286 36.8964C17.121 37.2042 16.6201 37.204 16.3125 36.8964L15.7538 36.3377C15.446 36.0299 15.446 35.5293 15.7538 35.2215L17.3592 33.6161L19.0341 35.2909L17.4286 36.8964ZM36.136 23.3748L24.0446 11.2834C23.8634 11.1022 23.6245 10.9907 23.3692 10.9685L17.186 10.428C17.1539 10.4251 17.1219 10.4238 17.0903 10.4238C16.5767 10.4238 16.1265 10.786 16.0232 11.2981L15.5277 13.756C15.2179 15.2925 13.7167 16.2905 12.1791 15.9809C11.4349 15.8309 10.7933 15.3998 10.3732 14.7674C9.95302 14.135 9.80413 13.3767 9.9543 12.6323L10.4498 10.1745C11.1881 6.51234 14.7666 4.13263 18.4302 4.87181C18.4378 4.87327 18.4456 4.8749 18.4534 4.87617L29.0403 6.77162L30.3438 8.07514L40.8898 18.6211L36.136 23.3748ZM45.5014 14.0093L42.4303 17.0805L31.8843 6.53449C31.6773 6.32749 31.5632 6.05223 31.5632 5.75935C31.5632 5.46647 31.6773 5.19139 31.8843 4.98421L34.1804 2.68802C34.3874 2.48103 34.6627 2.367 34.9554 2.367C35.2481 2.367 35.5234 2.48103 35.7305 2.68802L45.5014 12.4589C45.7084 12.6659 45.8224 12.9411 45.8224 13.234C45.8224 13.5269 45.7084 13.8024 45.5014 14.0093Z" fill="#2D9BF7"/>
<path d="M42.8643 14.756C43.466 14.756 43.9538 14.2683 43.9538 13.6666C43.9538 13.0649 43.466 12.5771 42.8643 12.5771C42.2627 12.5771 41.7749 13.0649 41.7749 13.6666C41.7749 14.2683 42.2627 14.756 42.8643 14.756Z" fill="#2D9BF7"/>
</svg>
