<svg width="44" height="44" viewBox="0 0 44 44" fill="none" xmlns="http://www.w3.org/2000/svg">
<path d="M43.9397 16.8703C43.7952 16.4278 43.4159 16.1117 42.9553 16.0394L29.2285 14.0888L23.0515 1.67145C22.8437 1.25603 22.4193 0.994141 21.9587 0.994141C21.4982 0.994141 21.0737 1.25603 20.866 1.68048L14.7702 14.1339L1.04341 16.1749C0.582841 16.2471 0.203548 16.5632 0.0590555 17.0057C-0.0854371 17.4482 0.0409939 17.9359 0.375133 18.252L10.3361 27.9059L8.03325 41.5785C7.95197 42.0391 8.14161 42.4997 8.52091 42.7706C8.72861 42.9241 8.98148 43.0054 9.23434 43.0054C9.43302 43.0054 9.62266 42.9602 9.80328 42.8609L22.0581 36.3677L34.349 42.7886C34.5296 42.8789 34.7192 42.9241 34.9089 42.9241C35.5772 42.9241 36.128 42.3732 36.128 41.7049C36.128 41.6056 36.119 41.5153 36.0919 41.425L33.7168 27.8337L43.6146 18.1255C43.9668 17.8004 44.0842 17.3128 43.9397 16.8703ZM31.5675 26.5422C31.2785 26.8222 31.1521 27.2286 31.2243 27.6259L33.2924 39.4834L22.618 33.9114C22.2658 33.7217 21.8413 33.7308 21.4801 33.9114L10.8418 39.5466L12.8376 27.6711C12.9008 27.2737 12.7744 26.8764 12.4854 26.5964L3.85199 18.2159L15.7636 16.4458C16.161 16.3826 16.5041 16.1388 16.6757 15.7775L21.9678 4.96769L27.332 15.7505C27.5127 16.1117 27.8558 16.3555 28.2532 16.4187L40.1738 18.1165L31.5675 26.5422Z" fill="#2D9BF7"/>
</svg>
