<svg width="17" height="11" viewBox="0 0 17 11" fill="none" xmlns="http://www.w3.org/2000/svg">
<path d="M16.9099 9.40989C16.8893 9.36553 16.8701 9.32873 16.8523 9.29925C16.5573 8.76803 15.9937 8.11601 15.1617 7.34298L15.1441 7.32528L15.1353 7.3166L15.1264 7.3077H15.1175C14.7399 6.94774 14.5008 6.70571 14.4006 6.5818C14.2174 6.34575 14.1764 6.10682 14.2765 5.86473C14.3473 5.68182 14.613 5.29554 15.0731 4.70536C15.3152 4.39259 15.5068 4.14191 15.6484 3.95305C16.6693 2.59579 17.1119 1.72849 16.9761 1.3508L16.9234 1.26254C16.888 1.2094 16.7965 1.16079 16.6492 1.11646C16.5015 1.07222 16.3127 1.0649 16.0825 1.09438L13.5334 1.11199C13.4921 1.09736 13.4332 1.09872 13.3563 1.11646C13.2796 1.13419 13.2412 1.14309 13.2412 1.14309L13.1969 1.16525L13.1617 1.19188C13.1321 1.20949 13.0997 1.24046 13.0642 1.28473C13.029 1.32885 12.9995 1.38062 12.976 1.43962C12.6984 2.15362 12.3829 2.81746 12.0288 3.4311C11.8104 3.79701 11.6099 4.11413 11.4268 4.38264C11.2439 4.65105 11.0905 4.84881 10.9666 4.97557C10.8426 5.10246 10.7307 5.20412 10.6302 5.28091C10.5299 5.35773 10.4533 5.39019 10.4002 5.37832C10.347 5.36644 10.297 5.35466 10.2496 5.34288C10.167 5.28974 10.1006 5.21748 10.0505 5.12602C10.0003 5.03457 9.96641 4.91946 9.94871 4.78079C9.9311 4.64203 9.92068 4.52267 9.91771 4.42232C9.91495 4.32209 9.91622 4.18032 9.9222 3.99741C9.92834 3.81441 9.9311 3.69059 9.9311 3.62567C9.9311 3.4014 9.93547 3.15801 9.94424 2.89542C9.95317 2.63284 9.96039 2.42479 9.96644 2.27152C9.97246 2.11809 9.97525 1.95577 9.97525 1.78464C9.97525 1.61351 9.96483 1.4793 9.94424 1.38189C9.92391 1.28461 9.89269 1.19018 9.85155 1.09863C9.81016 1.00718 9.74958 0.936431 9.6701 0.886209C9.59045 0.836048 9.49143 0.796242 9.3736 0.766666C9.06082 0.695889 8.66254 0.657602 8.17858 0.65165C7.08109 0.639869 6.37589 0.710739 6.06315 0.864166C5.93923 0.928991 5.8271 1.01756 5.72684 1.1296C5.6206 1.25947 5.60578 1.33034 5.68248 1.34199C6.03658 1.39504 6.28726 1.52193 6.4348 1.72254L6.48796 1.82884C6.52932 1.90554 6.57061 2.04133 6.61194 2.23602C6.6532 2.43071 6.67983 2.64608 6.69155 2.882C6.721 3.31283 6.721 3.68163 6.69155 3.98842C6.66201 4.29534 6.6341 4.53426 6.60747 4.70539C6.58084 4.87652 6.54104 5.01519 6.48796 5.12137C6.43479 5.22759 6.39942 5.2925 6.38169 5.31606C6.36399 5.33963 6.34923 5.35448 6.33751 5.3603C6.26081 5.38969 6.18105 5.40467 6.09849 5.40467C6.01581 5.40467 5.91555 5.36331 5.79756 5.28066C5.67959 5.19801 5.55717 5.08448 5.43028 4.93989C5.30339 4.79527 5.16029 4.59317 5.00091 4.33356C4.84165 4.07395 4.67641 3.76713 4.50528 3.41309L4.3637 3.15633C4.27519 2.99116 4.15428 2.75065 4.00086 2.43502C3.84734 2.11927 3.71164 1.81384 3.59368 1.5188C3.54653 1.39488 3.47569 1.30055 3.38129 1.23563L3.33699 1.209C3.30753 1.18544 3.26026 1.16042 3.1954 1.13376C3.13045 1.10713 3.06268 1.08803 2.99181 1.07628L0.566586 1.09389C0.318759 1.09389 0.150606 1.15003 0.0620653 1.26217L0.0266304 1.31521C0.00892848 1.34475 0 1.39194 0 1.45689C0 1.5218 0.0177019 1.60148 0.0531368 1.69582C0.407176 2.5279 0.792185 3.33038 1.20817 4.10337C1.62415 4.87637 1.98562 5.49904 2.29239 5.97082C2.59921 6.44294 2.91195 6.88853 3.23062 7.30736C3.54929 7.72635 3.76022 7.99485 3.86343 8.11282C3.96675 8.23099 4.04792 8.31935 4.10691 8.37834L4.32823 8.59074C4.46985 8.73238 4.67781 8.90202 4.9522 9.09966C5.22666 9.29742 5.53051 9.49211 5.8639 9.68404C6.19735 9.87566 6.58528 10.032 7.02789 10.153C7.47044 10.274 7.90117 10.3226 8.32016 10.2992H9.33807C9.54451 10.2813 9.70091 10.2164 9.80722 10.1044L9.84243 10.06C9.86612 10.0248 9.88829 9.97009 9.90875 9.89646C9.92946 9.82271 9.93975 9.74146 9.93975 9.65307C9.9337 9.39938 9.95302 9.17075 9.99716 8.96719C10.0413 8.76369 10.0916 8.61027 10.1478 8.50694C10.204 8.4037 10.2674 8.31659 10.338 8.24597C10.4088 8.17519 10.4592 8.13232 10.4888 8.11756C10.5181 8.10271 10.5416 8.09263 10.5593 8.08659C10.7009 8.0394 10.8676 8.0851 11.0596 8.22389C11.2514 8.36256 11.4313 8.53379 11.5995 8.73728C11.7677 8.94096 11.9698 9.16948 12.2058 9.42316C12.4419 9.67694 12.6484 9.86559 12.8254 9.98969L13.0023 10.0959C13.1205 10.1668 13.2739 10.2317 13.4628 10.2907C13.6513 10.3496 13.8165 10.3644 13.9583 10.3349L16.2241 10.2996C16.4482 10.2996 16.6226 10.2625 16.7463 10.1888C16.8703 10.1151 16.9439 10.0338 16.9676 9.94545C16.9913 9.85697 16.9926 9.75658 16.9721 9.64436C16.9511 9.53241 16.9305 9.45413 16.9099 9.40989Z"/>
</svg>
